<?xml version="1.0" encoding="utf-8"?>
<!-- Generator: Adobe Illustrator 18.1.1, SVG Export Plug-In . SVG Version: 6.00 Build 0)  -->
<svg version="1.1" id="Objects" xmlns="http://www.w3.org/2000/svg" xmlns:xlink="http://www.w3.org/1999/xlink" x="0px" y="0px"
	 viewBox="0 0 800 800" enable-background="new 0 0 800 800" xml:space="preserve">
<g>
	<path fill="#212121" d="M419.411,459.808c0,0-37.766,57.657-225.247,53.86c0,0,0.35-11.562,10.651-29.357
		c0,0,124.235,1.362,172.119-75.392C376.935,408.92,414.883,433.32,419.411,459.808z"/>
	<path fill="#2D2D2D" d="M360.29,372.901c0,0-15.461,10.442-21.152,20.868c-5.691,10.425,26.732,119.97-65.13,62.276l-5.69,6.577
		l-11.054,18.694c0,0,119.671,78.387,135.779-46.967L360.29,372.901z"/>
	<g>
		<path fill="#FDBA81" d="M366.244,301.745c0,0-0.506,18.953-7.048,19.96c-6.543,1.006-4.529-4.745-4.529-4.745
			s-6.145,10.994-9.984,8.153c-0.857-0.635-1.58-3.049-0.259-5.237c0,0-5.358-2.667-6.868-13
			c-1.509-10.333,19.622-18.219,19.622-18.219L366.244,301.745z"/>
		<path fill="#F9AB75" d="M360.627,312.717c-1.406-0.247-2.647,0.572-3.726,1.379c-0.681,0.509-1.269,1.105-1.814,1.755
			c-0.471,0.56-1.259,1.355-1.159,2.129c0.044,0.339,0.539,0.306,0.756,0.187c0.556-0.304,0.845-0.744,1.255-1.221
			c0.53-0.617,1.143-1.152,1.74-1.702c0.952-0.876,2.115-1.316,3.159-2.039C361.12,313.009,360.874,312.76,360.627,312.717z"/>
	</g>
	<g>
		<path fill="#FDBA81" d="M621.382,269.369c0,0,6.038-6.038,9.059-6.038c3.018,0,13.084,2.516,19.123,9.058
			c6.039,6.542-13.641,24.015-13.641,24.015s-9.852,1.26-12.196-1.789C621.382,291.565,621.382,269.369,621.382,269.369z"/>
		<path fill="#F9AB75" d="M642.076,271.779c-1.621,0-3.609,1.393-4.385,3.027c-1.282-0.954-3.037-1.784-4.92-2.49
			c0.151-0.223,0.31-0.441,0.491-0.644c0.527-0.583,1.29-0.852,1.758-1.459c0.28-0.366-0.246-0.598-0.548-0.589
			c-1.049,0.028-1.911,0.578-2.588,1.375c-0.215,0.255-0.402,0.527-0.544,0.811c-2.086-0.696-4.223-1.245-5.982-1.646
			c0.204-0.234,0.414-0.464,0.661-0.662c0.378-0.304,0.804-0.547,1.237-0.76c0.33-0.162,0.798-0.314,0.907-0.703
			c0.039-0.143-0.062-0.265-0.2-0.303c-1.013-0.274-2.025,0.404-2.807,0.986c-0.36,0.268-0.834,0.676-1.18,1.141
			c-1.567-0.328-2.597-0.494-2.597-0.494v22.196c0,0,2.517,4.979,6.542,4.836c4.025-0.143,1.51-17.098,1.51-17.098
			s7.047,6.542,10.065,0c0.656-1.422,0.17-2.694-0.99-3.816c0.379-0.583,0.771-1.148,1.287-1.643c0.763-0.733,1.8-0.948,2.607-1.578
			C642.724,272.016,642.349,271.779,642.076,271.779z"/>
	</g>
	<path fill="#2D2D2D" d="M504.128,389.139c0,0,83.987,10.932,131.795-92.735l-15.548-7.747c0,0-45.284,72.739-103.666,55.191
		C516.709,343.848,497.082,353.409,504.128,389.139z"/>
	<g>
		<g>
			<path fill="#FDBA81" d="M572.94,287.149c0.904,8.214-8.734,41.056-11.755,50.254c-2.247,6.843-19.601,3.014-22.578,1.61
				c-2.975-1.403-19.634,19.306-19.634,19.306l-12.913-13.719l9.519-16.444l-3.916-7.614l-1.794-23.276
				c0,0,3.903-29.045,11.99-33.883C529.948,258.545,567.978,242.005,572.94,287.149z"/>
			<path fill="#383838" d="M569.246,285.815c0,0,7.311,3.901,14.505-1.989c7.193-5.892,8.6-20.675-9.033-36.069
				c0,0,8.581,12.145,7.241,13.714c0,0-9.139-15.252-12.706-16.29c0,0,5.134,9.151,5.038,10.742
				c-0.159,2.599-2.939-6.853-14.446-11.959c-7.337-3.258-32.315-6.252-38.305-0.375c-5.991,5.876-6.834,14.491-6.834,14.491
				s-1.385,6.427-6.135,9.979c-4.75,3.554-1.403,24.356-0.843,31.742c0.56,7.385-0.979,16.314-0.979,16.314l7.429,8.999
				l2.445-24.689c0,0-7.767-12.838-2.139-19.838c5.628-7.001,10.782-4.078,12.725,0.121c2.938,6.364,1.571,11.683,1.571,11.683
				l3.624-0.866c0,0-0.925-6.229,3.605-13.103C540.537,271.546,547.73,256.364,569.246,285.815z"/>
			<g>
				<path fill="#F9AB75" d="M509.486,346.858c1.246-2.485,9.326-23.643,9.094-27.958c-0.23-4.315,2.339-0.84,9.795,4.617
					c7.457,5.458,30.27,14.272,30.27,14.272c0.756,0.301,1.292,0.837,1.655,1.494c-4.575,4.229-18.723,1.041-21.384-0.214
					c-2.292-1.081-17.864,14.773-19.942,19.251C518.965,358.311,508.243,349.344,509.486,346.858z"/>
			</g>
		</g>
		<path fill="#F9AB75" d="M518.346,280.917c0,0,5.207-0.428,5.097,7.449c-0.108,7.878-5.389,8.034-5.389,8.034
			S523.11,286.528,518.346,280.917z"/>
		
			<ellipse transform="matrix(-0.9594 -0.282 0.282 -0.9594 1003.4917 738.6442)" fill="#DB854B" cx="554.903" cy="297.104" rx="1.904" ry="3.047"/>
		<path fill="#DB854B" d="M566.885,303.462c-0.56,1.586-0.38,3.097,0.403,3.371c0.78,0.274,1.868-0.789,2.424-2.377
			c0.562-1.585,0.378-3.095-0.401-3.371C568.528,300.81,567.44,301.873,566.885,303.462z"/>
		<path fill="#DB854B" d="M561.741,319.56c-8.262,0.536-15.256-3.549-17.757-11.599c-0.853-0.688-1.731-1.406-2.649-2.174
			c0,0,6.08,38.177,23.352,14.525C564.688,320.312,563.847,320.382,561.741,319.56z"/>
		<path fill="#FFFFFF" d="M561.741,319.56c-2.974-1.161-8.485-4.119-17.757-11.599C546.485,316.011,553.479,320.095,561.741,319.56z
			"/>
		<path fill="#242424" d="M561.523,290.408c0,0-1.977-10.474-9.687-11.061c-9.767-0.743-10.574,7.958-10.574,7.958
			S550.678,274.067,561.523,290.408z"/>
		<path fill="#242424" d="M569.653,294.123c0,0,3.898-6.07,5.438,0.491C575.091,294.614,572.575,293.207,569.653,294.123z"/>
	</g>
	<path fill="#2D2D2D" d="M422.491,259.899c46.685,3.409,81.622,47.183,81.622,47.183l0,0c4.955,4.638,10.666,17.98,11.727,25.155
		c0,0,3.767,22.901,1.733,37.542c-2.033,14.642-75.236,82.849-99.228,98.037c0,0-49.248-50.1-56.309-68.048
		c-7.061-17.946-8.118-26.867-8.118-26.867s23.016-3.906,40.496-14.582c13.82-8.44,32.454-21.543,52.338-35.837
		c-19.009-63.058-80.51-20.737-80.51-20.737l-12.092-12.592C354.152,289.153,388.066,257.387,422.491,259.899z"/>
	<path fill="#212121" d="M513.911,325.113l-37.411,0.277l-13.878,29.626l-28.394,0.309c0,0-7.166,41.5-57.293,66.586
		c0,0,29.301,32.59,37.433,41.801l64.274-49.772l4.236-11.606l25.295-9.844l9.81-28.252
		C517.982,364.239,516.263,332.927,513.911,325.113z"/>
	<path fill="#D9E6C6" d="M381.647,427.156c0,0,14.39-7.317,39.53-31.2c53.464-50.793,86.589-61.943,91.158-59.035l2.367,24.879
		c0,0-18.019,40.155-104.068,98.007C410.634,459.808,381.364,429.58,381.647,427.156z"/>
	<path fill="#A10E2F" d="M517.982,352.63c0,0-61.446,79.593-122.937,43.945l-5.271-24.302l29.058-0.558
		c0,0,27.531,30.913,98.512-25.778L517.982,352.63z"/>
	<polygon fill="#FFFFFF" points="515.339,327.954 517.661,347.849 506.586,352.589 512.59,328.785 	"/>
	<polygon fill="#FFFFFF" points="518.343,350.955 511.161,361.396 517.982,359.982 521.088,355.094 	"/>
	<path fill="#2D2D2D" d="M274.911,460.232c0,0-5.395-11.897-11.642-15.165l-16.143,7.844l0.062,5.241l-6.219-0.881
		c0,0-14.586,18.322-20.15,32.237l6.237,2.314c0,0,19.99-10.622,25.652-11.29c5.662-0.669,9.078,0.369,9.078,0.369L274.911,460.232z
		"/>
	<path fill="#212121" d="M207.675,487.211c0,0-8.241-10.375-15.193-12.052l-13.95,11.697l1.353,5.142l-6.336,0.666
		c0,0-9.837,21.621-11.883,36.684l6.706,0.74c0,0,17.053-15.377,22.459-17.43c5.406-2.054,9.024-1.874,9.024-1.874L207.675,487.211z
		"/>
</g>
</svg>
